<svg xmlns="http://www.w3.org/2000/svg" width="600" height="800" viewBox="0 0 600 800">
<defs><linearGradient id="bg" x2="1" y2="1"><stop stop-color="#132d32"/><stop offset="1" stop-color="#0c151f"/></linearGradient><radialGradient id="moon"><stop stop-color="#f2e6d0" stop-opacity=".8"/><stop offset="1" stop-color="#d9b4a3" stop-opacity=".05"/></radialGradient></defs>
<rect width="600" height="800" fill="url(#bg)"/><circle cx="315" cy="230" r="180" fill="url(#moon)"/>
<g fill="none" stroke="#78978a" opacity=".45"><path d="M65 800Q110 480 80 0M125 800Q140 400 185 0M525 800Q475 420 555 0" stroke-width="8"/><path d="M82 240l-48-60m49 40 58-75m-14 250-75-60m79 24 68-98m330 57-65-89m62 45 57-100" stroke-width="3"/></g>
<g fill="#9caf94" opacity=".4"><path d="M80 215Q5 130 23 106Q67 148 80 215M137 356Q192 234 208 254Q192 313 137 356M526 273Q450 214 447 173Q491 206 526 273"/></g>
<g fill="#d2a1a8" opacity=".85"><ellipse cx="223" cy="392" rx="8" ry="17" transform="rotate(35 223 392)"/><ellipse cx="420" cy="508" rx="7" ry="15" transform="rotate(-45 420 508)"/><ellipse cx="173" cy="640" rx="9" ry="16" transform="rotate(60 173 640)"/><ellipse cx="370" cy="689" rx="6" ry="13" transform="rotate(20 370 689)"/></g>
<path d="M301 468C301 468 275 504 275 520A26 26 0 0 0 327 520C327 504 301 468Z" fill="#93bbb5" opacity=".65"/>
<g text-anchor="middle" font-family="KaiTi,STKaiti,serif"><text x="300" y="184" fill="#e6c2bc" font-size="26" letter-spacing="12">红楼幻梦</text><text x="300" y="272" fill="#f4e6d8" font-size="32" letter-spacing="8">绛珠仙子</text><text x="300" y="392" fill="#f4e6d8" font-size="96" letter-spacing="12">黛玉</text><text x="300" y="601" fill="#c0cabc" font-size="22" letter-spacing="4">以情生泪 · 以泪渡情</text><text x="300" y="742" fill="#d2a1a8" font-size="22" letter-spacing="10">命运</text></g>
<rect x="20" y="20" width="560" height="760" rx="8" fill="none" stroke="#a28f78" opacity=".55"/>
</svg>
